<?xml version="1.0" encoding="UTF-8" standalone="no"?>
<svg
   xmlns:dc="http://purl.org/dc/elements/1.1/"
   xmlns:cc="http://creativecommons.org/ns#"
   xmlns:rdf="http://www.w3.org/1999/02/22-rdf-syntax-ns#"
   xmlns:svg="http://www.w3.org/2000/svg"
   xmlns="http://www.w3.org/2000/svg"
   version="1.1"
   id="svg60"
   width="247.83946"
   height="243.13901"
   viewBox="0 0 247.83946 243.13901">
  <metadata
     id="metadata66">
    <rdf:RDF>
      <cc:Work
         rdf:about="">
        <dc:format>image/svg+xml</dc:format>
        <dc:type
           rdf:resource="http://purl.org/dc/dcmitype/StillImage" />
        <dc:title></dc:title>
      </cc:Work>
    </rdf:RDF>
  </metadata>
  <defs
     id="defs64" />
  <g
     id="g68"
     transform="matrix(0.95891325,0,0,1,-10.302036,3.1873867)"
     style="stroke:#ffffff;stroke-opacity:1">
    <g
       id="g72"
       transform="translate(10.81052,-2.6259603)"
       style="stroke:#ffffff;stroke-opacity:1">
      <path
         style="fill:#cf132b;stroke:#ffffff;stroke-opacity:1"
         d="m 0.45378353,240.75 c 0.21505767,-0.6875 1.15096117,-3.65423 2.07978557,-6.59274 l 1.6887716,-5.34274 9.3404933,0.34274 c 10.339356,0.37939 12.777239,1.50267 9.775682,4.50422 -1.023815,1.02382 -1.706656,2.66544 -1.517424,3.64804 C 22.550886,241.09904 20.262756,242 9.9089401,242 2.4901296,242 0.15916561,241.69184 0.45378353,240.75 Z M 17.569098,238.8882 c 0.377923,-0.6115 0.06698,-1.5046 -0.690983,-1.98469 C 15.512415,236.03849 6,235.61412 6,236.41821 c 0,0.23002 -0.273145,1.13002 -0.6069888,2 C 4.8807499,239.75314 5.7298776,240 10.833994,240 c 3.35875,0 6.353504,-0.49436 6.735104,-1.1118 z M 19.75,232.75 c -0.269841,-0.80952 -2.472222,-1.25 -6.25,-1.25 -3.7777778,0 -5.9801587,0.44048 -6.25,1.25 -0.3055556,0.91667 1.3611111,1.25 6.25,1.25 4.888889,0 6.555556,-0.33333 6.25,-1.25 z m 13.75,3.75978 c 6.866512,-6.19388 9.786553,-7.99753 11.736362,-7.24932 0.754206,0.28942 2.835952,3.27421 4.626102,6.63287 L 53.117283,242 h -2.590026 c -1.424515,0 -2.849048,-0.675 -3.165631,-1.5 -0.426968,-1.11266 -2.194824,-1.5 -6.84617,-1.5 -4.353886,0 -6.651083,0.45849 -7.515456,1.5 -0.684689,0.825 -2.202289,1.48246 -3.372445,1.46102 -1.711139,-0.0314 -0.953204,-1.0983 3.872445,-5.45124 z M 45,235.62244 c 0,-0.75765 -0.601838,-1.87703 -1.337417,-2.48751 -1.02245,-0.84856 -1.887765,-0.52414 -3.674314,1.37756 L 37.651372,237 h 3.674314 C 43.779924,237 45,236.54258 45,235.62244 Z m 13.693853,5.73808 c -1.626434,-1.62643 0.964012,-2.07191 9.288203,-1.59729 C 75.879769,240.21354 77,240.07385 77,238.63871 c 0,-1.35492 -1.168966,-1.64136 -6.75,-1.65402 -8.318786,-0.0189 -10.067711,-0.89459 -8.529397,-4.27083 0.706772,-1.55119 2.267697,-2.66152 4.318145,-3.07161 7.800411,-1.56008 18.610608,0.10839 16.216155,2.50285 -0.761033,0.76103 -2.037529,0.75416 -4.412839,-0.0238 -4.365202,-1.4296 -10.574176,-1.14906 -11.976924,0.54115 C 64.963569,233.74882 65.69361,234 69.752555,234 77.948614,234 81,234.92919 81,237.425 81,241.29439 79.144079,242 68.966667,242 c -5.298334,0 -9.9211,-0.28777 -10.272814,-0.63948 z M 88.453784,240.75 c 0.215057,-0.6875 1.137099,-3.6125 2.048981,-6.5 L 92.160733,229 h 9.919637 c 5.94642,0 9.91963,0.40054 9.91963,1 0,0.55434 -2.64497,1 -5.9349,1 -3.2642,0 -7.201696,0.54869 -8.75,1.21932 l -2.8151,1.21932 4.25,0.33818 C 104.35207,234.22258 104.23774,236 98.606989,236 94.648901,236 93,237.05333 93,239.58179 93,239.8118 96.626558,240 101.05902,240 c 5.11803,0 7.83347,0.36493 7.44098,1 -0.96122,1.55529 -20.534574,1.31119 -20.046216,-0.25 z m 27.885586,-1.69684 c 0.32415,-1.62076 1.27621,-4.59069 2.11569,-6.59984 l 1.52632,-3.65301 8.96046,0.34984 c 10.0924,0.39404 12.37004,1.53797 9.25816,4.64985 -1.42794,1.42794 -1.69212,2.30788 -0.92363,3.07637 0.7685,0.7685 0.55255,1.65519 -0.75499,3.1 C 134.92849,241.73649 133.45689,242 125.22001,242 H 115.75 Z M 132.81396,238.25 c -0.2587,-1.3608 -1.53275,-1.81842 -5.72868,-2.05765 -3.55187,-0.2025 -5.6621,0.12294 -6.17465,0.95226 -1.36315,2.20561 0.0527,2.85539 6.22171,2.85539 5.18799,0 5.9686,-0.24044 5.68162,-1.75 z M 135,232.5 c 0,-1.16364 -1.32145,-1.5 -5.89301,-1.5 -4.31574,0 -6.04707,0.40148 -6.46862,1.5 -0.47509,1.23806 0.55398,1.5 5.89301,1.5 C 133.6146,234 135,233.67874 135,232.5 Z m 8,9.06424 c 0,-1.35736 15.29276,-12.65607 16.759,-12.38201 0.95755,0.17898 3.22832,3.1362 5.04616,6.57159 L 168.11032,242 h -2.58654 c -1.4226,0 -2.84557,-0.675 -3.16215,-1.5 -0.42697,-1.11266 -2.19483,-1.5 -6.84617,-1.5 -4.35389,0 -6.65109,0.45849 -7.51546,1.5 -1.11102,1.33869 -5,2.16645 -5,1.06424 z M 159.81805,234.5 c -0.6265,-1.375 -1.43841,-2.5 -1.80425,-2.5 -0.36585,0 -1.72205,1.125 -3.0138,2.5 l -2.34863,2.5 h 4.15288 c 4.06682,0 4.12927,-0.0518 3.0138,-2.5 z M 174,241.17814 c 0,-1.44435 3.23555,-10.64472 4.0657,-11.56092 0.43992,-0.48553 1.49192,-0.61722 2.33777,-0.29264 1.37076,0.52602 1.37807,1.04316 0.0672,4.75851 -0.80887,2.2926 -1.47068,4.56179 -1.47068,5.04264 0,0.48085 3.15,0.87427 7,0.87427 4,0 7,0.42857 7,1 0,0.59649 -3.83333,1 -9.5,1 -5.225,0 -9.5,-0.36984 -9.5,-0.82186 z m 26.07665,-4.90093 c 2.26075,-6.57099 3.18276,-7.77538 5.32346,-6.95392 1.36417,0.52349 1.37163,0.97875 0.0672,4.10067 -2.59432,6.20906 -2.28227,6.57604 5.59169,6.57604 4.45136,0 6.83071,0.36941 6.44098,1 -0.341,0.55176 -4.82576,1 -10.00516,1 h -9.38712 l 1.96893,-5.72279 z M 6.6549876,219.17126 C 4.5043851,216.79487 4.5669362,212.94009 6.9297388,202.23941 7.9910951,197.43274 12.743411,174.825 17.49044,152 22.23747,129.175 27.651942,103.3 29.522601,94.5 31.393259,85.7 34.327346,71.525 36.042794,63 37.758241,54.475 39.835388,46.449913 40.658676,45.166474 43.924175,40.075823 44.838133,40 102.93416,40 h 53.99839 l -1.85646,3.25 c -1.02106,1.7875 -2.39421,4.947911 -3.05146,7.023136 -0.89939,2.839735 -2.1818,4.276562 -5.18399,5.808164 -3.03641,1.549059 -3.73511,2.340924 -2.92588,3.315991 0.82742,0.996986 -0.32,1.660364 -5.17583,2.992372 -3.43535,0.942358 -9.29864,3.732046 -13.04786,6.20803 -3.74491,2.473141 -7.85122,4.892899 -9.12514,5.377239 -1.72165,0.654572 -2.20676,1.476714 -1.88984,3.202843 0.34126,1.858689 -0.4322,2.863602 -3.87486,5.034418 -8.36634,5.2755 -12.363542,9.950514 -17.791982,20.808987 C 89.809056,109.4225 86.49276,114.5659 84.48665,116.23927 80.647775,119.44141 75,127.62012 75,129.97716 c 0,0.89886 -1.125,3.15913 -2.5,5.02284 -3.354237,4.54641 -3.32855,8.73449 0.06148,10.02337 2.330088,0.8859 2.513144,1.35793 2.026408,5.22525 -0.294289,2.33826 -0.775733,9.42638 -1.069877,15.75138 -0.294143,6.325 -0.802017,15.325 -1.128607,20 -0.539264,7.71932 -0.394058,8.75257 1.580978,11.25 1.850366,2.33978 2.916586,2.75 7.147654,2.75 3.946508,0 5.479475,-0.5066 7.42742,-2.45455 3.334444,-3.33444 3.233727,-8.52861 -0.587199,-30.28312 C 85.067131,150.80165 84.931288,148 87.024289,148 c 0.49844,0 3.034983,-1.35 5.636763,-3 5.644731,-3.57978 11.435998,-3.88859 27.546368,-1.46885 5.6467,0.84813 12.11208,1.24357 14.49342,0.88646 3.66676,-0.54986 4.29916,-0.38849 4.29916,1.09704 0,0.95795 -1.99571,3.82154 -4.43491,6.36354 -10.08502,10.51005 -14.40777,15.86534 -16.29587,20.18837 -1.09696,2.51161 -4.68737,7.46161 -7.97869,11 -6.63307,7.13099 -15.180419,18.45515 -22.79053,30.19457 l -5,7.71304 -37.095012,0.0129 c -34.67642,0.0121 -37.202918,-0.1063 -38.7500004,-1.81581 z M 65.92742,172.36514 c 3.032993,-3.85582 2.676746,-7.67898 -1.004145,-10.77625 -3.718631,-3.12902 -6.176562,-3.25678 -10.018905,-0.5208 -3.69428,2.63056 -4.03777,8.09656 -0.730056,11.61746 3.154635,3.35795 8.984725,3.19902 11.753106,-0.32041 z m 74.66779,40.49997 c 5.99763,-4.47419 12.53068,-9.68036 14.51788,-11.56926 l 3.61309,-3.43437 6.63691,10.98566 C 169.01339,214.88925 172,220.09542 172,220.4164 172,220.73738 162.48034,221 150.84521,221 h -21.1548 z M 209.97652,206.75 c -1.80546,-6.1875 -4.63542,-15.075 -6.28881,-19.75 -2.64684,-7.48405 -3.02376,-9.93428 -3.15352,-20.5 -0.12286,-10.00417 -0.50405,-12.74825 -2.29194,-16.49884 -1.35629,-2.84522 -1.79495,-4.84846 -1.19341,-5.45 0.52314,-0.52314 0.95116,-3.6817 0.95116,-7.01903 0,-4.71024 0.52494,-6.84695 2.34623,-9.55 4.06589,-6.03435 5.27093,-27.90747 2.1323,-38.703995 -2.18236,-7.50703 -7.00659,-16.936256 -10.16047,-19.859168 -2.28088,-2.113848 -2.42513,-2.673064 -1.42765,-5.534429 1.80161,-5.168127 1.3844,-15.922634 -0.78261,-20.173096 L 188.2156,40 h 29.45794 c 18.85191,0 30.17159,0.381931 31.44007,1.060802 4.20472,2.250298 4.19128,5.064321 -0.1234,25.83604 -6.69854,32.248145 -8.98179,43.137918 -11.02929,52.603158 -1.07077,4.95 -3.99075,18.9 -6.48884,31 -13.79784,66.83267 -12.96142,63.21941 -15.22009,65.75 -0.85908,0.9625 -1.88391,1.75 -2.27739,1.75 -0.39349,0 -2.19262,-5.0625 -3.99808,-11.25 z M 97.75,131.2992 c -2.073005,-0.52814 -2.043736,-0.24703 -0.616046,-5.9169 0.991543,-3.93777 2.382602,-5.57838 11.076366,-13.06338 5.46833,-4.70802 10.41619,-9.59985 10.99524,-10.87073 0.76118,-1.670604 2.47135,-2.641979 6.17363,-3.506618 2.81645,-0.657758 6.51178,-1.760847 8.21186,-2.451308 l 3.09105,-1.255383 1.20405,4.697944 c 1.096,4.276375 0.96784,5.352765 -1.42823,11.995205 -2.51137,6.96212 -2.61673,8.30831 -0.96438,12.32197 0.5887,1.43 0.19012,1.75 -2.17978,1.75 -1.59512,0 -6.70577,1.08473 -11.35699,2.4105 -4.65122,1.32578 -10.93177,2.70833 -13.95677,3.07234 -3.025,0.364 -6.175,0.79692 -7,0.96202 -0.825,0.16511 -2.2875,0.0996 -3.25,-0.14566 z M 46.33794,30.001369 C 42.510705,28.458023 42.555128,25.47047 46.60013,12.368356 L 50.418599,0 H 55.2093 C 57.844185,0 60,0.3655855 60,0.81241222 60,1.2592389 58.65,5.6186534 57,10.5 52.531405,23.719854 52.207263,23.125329 63.698589,22.786212 L 73.397177,22.5 76.948589,11.5 80.5,0.5 85.75,0.19774042 c 3.838486,-0.22099415 5.222509,0.0478656 5.14775,0.99999998 C 90.841513,1.9139832 89.379013,6.55 87.64775,11.5 l -3.14775,9 -3.880139,0.318124 -3.880138,0.318123 3.163293,3.26369 c 2.083429,2.149554 2.944765,3.833165 2.523149,4.931877 -0.563616,1.46876 -2.629756,1.660608 -17.283154,1.6048 C 55.989355,30.901751 47.527073,30.480891 46.33794,30.001369 Z M 87.053833,27.575395 83.607666,24 H 100.72205 C 118.41657,24 121,23.681498 121,21.5 121,19.510295 118.56435,19 109.06744,19 94.211281,19 90.230239,16.287287 93.915209,8.6751544 97.318342,1.6452208 100.24208,0.55446971 116.75,0.1562355 126.07085,-0.06861908 131,0.1682915 131,0.84113584 c 0,0.56576566 -0.43886,2.18295966 -0.97525,3.59376446 -0.97016,2.5517213 -1.03666,2.5651796 -12.75,2.5804125 -12.13633,0.015783 -14.9867,0.6869884 -13.98648,3.2935342 0.45664,1.189984 2.90729,1.582925 11.54363,1.850925 9.15416,0.284068 11.31817,0.661251 13.11003,2.285053 3.1605,2.864078 2.33256,5.9805 -1.69193,6.368533 -3.81906,0.368226 -3.95274,0.809707 -1.14892,3.794239 l 2.10108,2.236499 -3.35108,1.814501 c -2.7118,1.468353 -6.2126,1.879142 -18.35108,2.153347 l -15,0.338846 z M 132.59966,27.75 l -2.5453,-3.25 14.65382,-0.27777 c 14.79064,-0.280363 18.4448,-1.128051 16.25206,-3.770137 -0.71902,-0.866363 -4.7711,-1.391182 -12.4872,-1.617321 -10.07197,-0.295183 -11.6747,-0.587005 -13.55308,-2.467715 C 130.70325,12.145104 135.71979,3.2817621 143.5577,1.1056768 147.06509,0.13189935 172,-0.52990941 172,0.35077673 172,0.54370394 171.50598,2.1187039 170.90217,3.8507767 L 169.80435,7 H 158.0933 c -8.80257,0 -12.19313,0.3678101 -13.65217,1.4809968 -3.18424,2.4294372 -0.059,3.4865372 10.35853,3.5036902 C 166.16783,12.003406 170,13.526405 170,18.02568 170,20.758236 169.71551,21 166.5,21 c -4.04963,0 -4.27156,0.54981 -1.43897,3.564963 l 2.06103,2.193865 -2.69589,2.120586 C 161.98628,30.798635 160.46805,31 148.43762,31 h -13.29266 z m 40.06564,0.258658 C 171.19938,26.36342 170,24.78842 170,24.508658 170,24.228896 177.56,24 186.8,24 c 17.18784,0 20.5385,-0.682281 18.05376,-3.676206 -0.76405,-0.920624 -3.87851,-1.325492 -10.2262,-1.329371 -11.89835,-0.0073 -16.40001,-1.239604 -17.27586,-4.729285 C 176.33004,10.194529 179.67259,4.917239 184.96189,2.25 188.92141,0.25333061 190.92023,0 202.71476,0 h 13.29098 l -1.32443,3.25 -1.32442,3.25 -12.0809,0.2799959 c -8.97265,0.207957 -12.38542,0.6469367 -13.26453,1.7061951 -2.19314,2.642577 -0.0155,3.513731 8.79756,3.519386 4.78004,0.0031 10.42447,0.486917 12.54318,1.075222 3.25721,0.904436 3.76842,1.405545 3.30982,3.244423 -0.2983,1.196128 -1.04007,4.238842 -1.64838,6.761587 C 209.35831,29.951793 206.45972,31 189.13137,31 H 175.3306 Z m 44.73436,1.57586 c -3.52881,-1.550361 -4.51869,-3.363236 -3.67916,-6.738066 1.02131,-4.10556 4.13054,-7.569692 8.28684,-9.232713 8.28362,-3.314449 10.23717,-1.682866 7.00719,5.852355 -2.24827,5.245008 -2.00954,6.679311 0.72934,4.381929 0.96587,-0.810176 2.9779,-2.232483 4.47117,-3.160681 2.65148,-1.648129 2.79502,-1.617407 6.13201,1.312513 1.87934,1.65008 3.6196,3.000145 3.86724,3.000145 0.24764,0 0.24971,-2.418279 0.005,-5.373954 l -0.44565,-5.373953 4.86337,-3.376047 L 253.5,7.5 248.51933,7.1857881 c -5.29747,-0.334198 -6.47953,-1.2561253 -6.50402,-5.0726984 -0.0149,-2.32607572 0.1506,-2.37359255 6.49442,-1.864372 3.58035,0.28739611 7.18035,1.0791059 8,1.7593551 C 258.58247,3.7282941 258.345,8.8170771 255.6468,20.5 l -2.30952,10 -16.41864,0.223316 c -12.08449,0.164366 -17.23706,-0.136251 -19.51898,-1.138798 z M 224.01365,5.75 C 224.06856,0.72345977 225.02516,0 231.61663,0 235.12748,0 238,0.24734697 238,0.54965993 238,0.85197289 237.31344,2.4269729 236.47432,4.0496599 235.0667,6.771687 234.52501,7 229.47432,7 225.75425,7 224.00438,6.599437 224.01365,5.75 Z"
         id="path76" />
      <path
         style="fill:#002f83;stroke:#ffffff;stroke-opacity:1"
         d="m 0.45378353,240.75 c 0.21505767,-0.6875 1.15096117,-3.65423 2.07978557,-6.59274 l 1.6887716,-5.34274 9.3404933,0.34274 c 10.339356,0.37939 12.777239,1.50267 9.775682,4.50422 -1.023815,1.02382 -1.706656,2.66544 -1.517424,3.64804 C 22.550886,241.09904 20.262756,242 9.9089401,242 2.4901296,242 0.15916561,241.69184 0.45378353,240.75 Z M 17.569098,238.8882 c 0.377923,-0.6115 0.06698,-1.5046 -0.690983,-1.98469 C 15.512415,236.03849 6,235.61412 6,236.41821 c 0,0.23002 -0.273145,1.13002 -0.6069888,2 C 4.8807499,239.75314 5.7298776,240 10.833994,240 c 3.35875,0 6.353504,-0.49436 6.735104,-1.1118 z M 19.75,232.75 c -0.269841,-0.80952 -2.472222,-1.25 -6.25,-1.25 -3.7777778,0 -5.9801587,0.44048 -6.25,1.25 -0.3055556,0.91667 1.3611111,1.25 6.25,1.25 4.888889,0 6.555556,-0.33333 6.25,-1.25 z m 13.75,3.75978 c 6.866512,-6.19388 9.786553,-7.99753 11.736362,-7.24932 0.754206,0.28942 2.835952,3.27421 4.626102,6.63287 L 53.117283,242 h -2.590026 c -1.424515,0 -2.849048,-0.675 -3.165631,-1.5 -0.426968,-1.11266 -2.194824,-1.5 -6.84617,-1.5 -4.353886,0 -6.651083,0.45849 -7.515456,1.5 -0.684689,0.825 -2.202289,1.48246 -3.372445,1.46102 -1.711139,-0.0314 -0.953204,-1.0983 3.872445,-5.45124 z M 45,235.62244 c 0,-0.75765 -0.601838,-1.87703 -1.337417,-2.48751 -1.02245,-0.84856 -1.887765,-0.52414 -3.674314,1.37756 L 37.651372,237 h 3.674314 C 43.779924,237 45,236.54258 45,235.62244 Z m 13.693853,5.73808 c -1.626434,-1.62643 0.964012,-2.07191 9.288203,-1.59729 C 75.879769,240.21354 77,240.07385 77,238.63871 c 0,-1.35492 -1.168966,-1.64136 -6.75,-1.65402 -8.318786,-0.0189 -10.067711,-0.89459 -8.529397,-4.27083 0.706772,-1.55119 2.267697,-2.66152 4.318145,-3.07161 7.800411,-1.56008 18.610608,0.10839 16.216155,2.50285 -0.761033,0.76103 -2.037529,0.75416 -4.412839,-0.0238 -4.365202,-1.4296 -10.574176,-1.14906 -11.976924,0.54115 C 64.963569,233.74882 65.69361,234 69.752555,234 77.948614,234 81,234.92919 81,237.425 81,241.29439 79.144079,242 68.966667,242 c -5.298334,0 -9.9211,-0.28777 -10.272814,-0.63948 z M 88.453784,240.75 c 0.215057,-0.6875 1.137099,-3.6125 2.048981,-6.5 L 92.160733,229 h 9.919637 c 5.94642,0 9.91963,0.40054 9.91963,1 0,0.55434 -2.64497,1 -5.9349,1 -3.2642,0 -7.201696,0.54869 -8.75,1.21932 l -2.8151,1.21932 4.25,0.33818 C 104.35207,234.22258 104.23774,236 98.606989,236 94.648901,236 93,237.05333 93,239.58179 93,239.8118 96.626558,240 101.05902,240 c 5.11803,0 7.83347,0.36493 7.44098,1 -0.96122,1.55529 -20.534574,1.31119 -20.046216,-0.25 z m 27.885586,-1.69684 c 0.32415,-1.62076 1.27621,-4.59069 2.11569,-6.59984 l 1.52632,-3.65301 8.96046,0.34984 c 10.0924,0.39404 12.37004,1.53797 9.25816,4.64985 -1.42794,1.42794 -1.69212,2.30788 -0.92363,3.07637 0.7685,0.7685 0.55255,1.65519 -0.75499,3.1 C 134.92849,241.73649 133.45689,242 125.22001,242 H 115.75 Z M 132.81396,238.25 c -0.2587,-1.3608 -1.53275,-1.81842 -5.72868,-2.05765 -3.55187,-0.2025 -5.6621,0.12294 -6.17465,0.95226 -1.36315,2.20561 0.0527,2.85539 6.22171,2.85539 5.18799,0 5.9686,-0.24044 5.68162,-1.75 z M 135,232.5 c 0,-1.16364 -1.32145,-1.5 -5.89301,-1.5 -4.31574,0 -6.04707,0.40148 -6.46862,1.5 -0.47509,1.23806 0.55398,1.5 5.89301,1.5 C 133.6146,234 135,233.67874 135,232.5 Z m 8,9.06424 c 0,-1.35736 15.29276,-12.65607 16.759,-12.38201 0.95755,0.17898 3.22832,3.1362 5.04616,6.57159 L 168.11032,242 h -2.58654 c -1.4226,0 -2.84557,-0.675 -3.16215,-1.5 -0.42697,-1.11266 -2.19483,-1.5 -6.84617,-1.5 -4.35389,0 -6.65109,0.45849 -7.51546,1.5 -1.11102,1.33869 -5,2.16645 -5,1.06424 z M 159.81805,234.5 c -0.6265,-1.375 -1.43841,-2.5 -1.80425,-2.5 -0.36585,0 -1.72205,1.125 -3.0138,2.5 l -2.34863,2.5 h 4.15288 c 4.06682,0 4.12927,-0.0518 3.0138,-2.5 z M 174,241.17814 c 0,-1.44435 3.23555,-10.64472 4.0657,-11.56092 0.43992,-0.48553 1.49192,-0.61722 2.33777,-0.29264 1.37076,0.52602 1.37807,1.04316 0.0672,4.75851 -0.80887,2.2926 -1.47068,4.56179 -1.47068,5.04264 0,0.48085 3.15,0.87427 7,0.87427 4,0 7,0.42857 7,1 0,0.59649 -3.83333,1 -9.5,1 -5.225,0 -9.5,-0.36984 -9.5,-0.82186 z m 26.07665,-4.90093 c 2.26075,-6.57099 3.18276,-7.77538 5.32346,-6.95392 1.36417,0.52349 1.37163,0.97875 0.0672,4.10067 -2.59432,6.20906 -2.28227,6.57604 5.59169,6.57604 4.45136,0 6.83071,0.36941 6.44098,1 -0.341,0.55176 -4.82576,1 -10.00516,1 h -9.38712 l 1.96893,-5.72279 z M 6.6549876,219.17126 C 4.5043851,216.79487 4.5669362,212.94009 6.9297388,202.23941 7.9910951,197.43274 12.743411,174.825 17.49044,152 22.23747,129.175 27.651942,103.3 29.522601,94.5 31.393259,85.7 34.327346,71.525 36.042794,63 37.758241,54.475 39.835388,46.449913 40.658676,45.166474 43.924175,40.075823 44.838133,40 102.93416,40 h 53.99839 l -1.85646,3.25 c -1.02106,1.7875 -2.39421,4.947911 -3.05146,7.023136 -0.89939,2.839735 -2.1818,4.276562 -5.18399,5.808164 -3.03641,1.549059 -3.73511,2.340924 -2.92588,3.315991 0.82742,0.996986 -0.32,1.660364 -5.17583,2.992372 -3.43535,0.942358 -9.29864,3.732046 -13.04786,6.20803 -3.74491,2.473141 -7.85122,4.892899 -9.12514,5.377239 -1.72165,0.654572 -2.20676,1.476714 -1.88984,3.202843 0.34126,1.858689 -0.4322,2.863602 -3.87486,5.034418 -8.36634,5.2755 -12.363542,9.950514 -17.791982,20.808987 C 89.809056,109.4225 86.49276,114.5659 84.48665,116.23927 80.647775,119.44141 75,127.62012 75,129.97716 c 0,0.89886 -1.125,3.15913 -2.5,5.02284 -3.354237,4.54641 -3.32855,8.73449 0.06148,10.02337 2.330088,0.8859 2.513144,1.35793 2.026408,5.22525 -0.294289,2.33826 -0.775733,9.42638 -1.069877,15.75138 -0.294143,6.325 -0.802017,15.325 -1.128607,20 -0.539264,7.71932 -0.394058,8.75257 1.580978,11.25 1.850366,2.33978 2.916586,2.75 7.147654,2.75 3.946508,0 5.479475,-0.5066 7.42742,-2.45455 3.334444,-3.33444 3.233727,-8.52861 -0.587199,-30.28312 C 85.067131,150.80165 84.931288,148 87.024289,148 c 0.49844,0 3.034983,-1.35 5.636763,-3 5.644731,-3.57978 11.435998,-3.88859 27.546368,-1.46885 5.6467,0.84813 12.11208,1.24357 14.49342,0.88646 3.66676,-0.54986 4.29916,-0.38849 4.29916,1.09704 0,0.95795 -1.99571,3.82154 -4.43491,6.36354 -10.08502,10.51005 -14.40777,15.86534 -16.29587,20.18837 -1.09696,2.51161 -4.68737,7.46161 -7.97869,11 -6.63307,7.13099 -15.180419,18.45515 -22.79053,30.19457 l -5,7.71304 -37.095012,0.0129 c -34.67642,0.0121 -37.202918,-0.1063 -38.7500004,-1.81581 z M 65.92742,172.36514 c 3.032993,-3.85582 2.676746,-7.67898 -1.004145,-10.77625 -3.718631,-3.12902 -6.176562,-3.25678 -10.018905,-0.5208 -3.69428,2.63056 -4.03777,8.09656 -0.730056,11.61746 3.154635,3.35795 8.984725,3.19902 11.753106,-0.32041 z M 97.75,131.2992 c -2.073005,-0.52814 -2.043736,-0.24703 -0.616046,-5.9169 0.991543,-3.93777 2.382602,-5.57838 11.076366,-13.06338 5.46833,-4.70802 10.41619,-9.59985 10.99524,-10.87073 0.76118,-1.670604 2.47135,-2.641979 6.17363,-3.506618 2.81645,-0.657758 6.51178,-1.760847 8.21186,-2.451308 l 3.09105,-1.255383 1.20405,4.697944 c 1.096,4.276375 0.96784,5.352765 -1.42823,11.995205 -2.51137,6.96212 -2.61673,8.30831 -0.96438,12.32197 0.5887,1.43 0.19012,1.75 -2.17978,1.75 -1.59512,0 -6.70577,1.08473 -11.35699,2.4105 -4.65122,1.32578 -10.93177,2.70833 -13.95677,3.07234 -3.025,0.364 -6.175,0.79692 -7,0.96202 -0.825,0.16511 -2.2875,0.0996 -3.25,-0.14566 z M 46.33794,30.001369 C 42.510705,28.458023 42.555128,25.47047 46.60013,12.368356 L 50.418599,0 H 55.2093 C 57.844185,0 60,0.3655855 60,0.81241222 60,1.2592389 58.65,5.6186534 57,10.5 52.531405,23.719854 52.207263,23.125329 63.698589,22.786212 L 73.397177,22.5 76.948589,11.5 80.5,0.5 85.75,0.19774042 c 3.838486,-0.22099415 5.222509,0.0478656 5.14775,0.99999998 C 90.841513,1.9139832 89.379013,6.55 87.64775,11.5 l -3.14775,9 -3.880139,0.318124 -3.880138,0.318123 3.163293,3.26369 c 2.083429,2.149554 2.944765,3.833165 2.523149,4.931877 -0.563616,1.46876 -2.629756,1.660608 -17.283154,1.6048 -9.153656,-0.03486 -17.615938,-0.455723 -18.805071,-0.935245 z m 171.06172,-0.416851 c -3.52881,-1.550361 -4.51869,-3.363236 -3.67916,-6.738066 1.02131,-4.10556 4.13054,-7.569692 8.28684,-9.232713 8.28362,-3.314449 10.23717,-1.682866 7.00719,5.852355 -2.24827,5.245008 -2.00954,6.679311 0.72934,4.381929 0.96587,-0.810176 2.9779,-2.232483 4.47117,-3.160681 2.65148,-1.648129 2.79502,-1.617407 6.13201,1.312513 1.87934,1.65008 3.6196,3.000145 3.86724,3.000145 0.24764,0 0.24971,-2.418279 0.005,-5.373954 l -0.44565,-5.373953 4.86337,-3.376047 L 253.5,7.5 248.51933,7.1857881 c -5.29747,-0.334198 -6.47953,-1.2561253 -6.50402,-5.0726984 -0.0149,-2.32607572 0.1506,-2.37359255 6.49442,-1.864372 3.58035,0.28739611 7.18035,1.0791059 8,1.7593551 C 258.58247,3.7282941 258.345,8.8170771 255.6468,20.5 l -2.30952,10 -16.41864,0.223316 c -12.08449,0.164366 -17.23706,-0.136251 -19.51898,-1.138798 z M 224.01365,5.75 C 224.06856,0.72345977 225.02516,0 231.61663,0 235.12748,0 238,0.24734697 238,0.54965993 238,0.85197289 237.31344,2.4269729 236.47432,4.0496599 235.0667,6.771687 234.52501,7 229.47432,7 225.75425,7 224.00438,6.599437 224.01365,5.75 Z"
         id="path74" />
    </g>
  </g>
</svg>
